<?xml version="1.0" encoding="UTF-8" standalone="no"?>
<!DOCTYPE svg PUBLIC "-//W3C//DTD SVG 1.1//EN" "http://www.w3.org/Graphics/SVG/1.1/DTD/svg11.dtd">
<svg width="100%" height="100%" viewBox="0 0 319 73" version="1.1" xmlns="http://www.w3.org/2000/svg" xmlns:xlink="http://www.w3.org/1999/xlink" xml:space="preserve" xmlns:serif="http://www.serif.com/" style="fill-rule:evenodd;clip-rule:evenodd;stroke-linejoin:round;stroke-miterlimit:2;">
    <g id="ArtBoard1" transform="matrix(0.90113,0,0,0.722772,-199.149718,-56.376238)">
        <rect x="221" y="78" width="354" height="101" style="fill:none;"/>
        <g transform="matrix(1.109718,0,0,1.383562,-44.222571,-50.671233)">
            <g transform="matrix(1,0,0,1,-214,101)">
                <path d="M570.34,3.025L570.34,54.375C570.34,56.045 568.985,57.4 567.315,57.4C565.645,57.4 564.29,56.045 564.29,54.375L564.29,3.025C564.29,1.355 565.645,0 567.315,0C568.985,0 570.34,1.355 570.34,3.025Z"/>
            </g>
            <g transform="matrix(1,0,0,1,-214,101)">
                <path d="M556.34,13.075L556.34,44.335C556.34,46.005 554.985,47.36 553.315,47.36C551.645,47.36 550.29,46.005 550.29,44.335L550.29,13.075C550.29,11.405 551.645,10.05 553.315,10.05C554.985,10.05 556.34,11.405 556.34,13.075Z"/>
            </g>
            <g transform="matrix(1,0,0,1,-214,101)">
                <path d="M542.12,25.44L542.12,31.97C542.12,33.642 540.762,35 539.09,35L537.53,35C535.858,35 534.5,33.642 534.5,31.97L534.5,25.44C534.5,23.768 535.858,22.41 537.53,22.41L539.09,22.41C540.762,22.41 542.12,23.768 542.12,25.44Z"/>
            </g>
            <g transform="matrix(1,0,0,1,-214,101)">
                <path d="M582.34,13.075L582.34,44.335C582.34,46.005 580.985,47.36 579.315,47.36C577.645,47.36 576.29,46.005 576.29,44.335L576.29,13.075C576.29,11.405 577.645,10.05 579.315,10.05C580.985,10.05 582.34,11.405 582.34,13.075Z"/>
            </g>
            <g transform="matrix(1,0,0,1,-214,101)">
                <path d="M594.34,23.335L594.34,34.075C594.34,35.745 592.985,37.1 591.315,37.1C589.645,37.1 588.29,35.745 588.29,34.075L588.29,23.335C588.29,21.665 589.645,20.31 591.315,20.31C592.985,20.31 594.34,21.665 594.34,23.335Z"/>
            </g>
            <g transform="matrix(1,0,0,1,-214,101)">
                <circle cx="515.06" cy="28.7" r="4.96"/>
            </g>
            <g transform="matrix(1,0,0,1,-214,101)">
                <circle cx="487.62" cy="28.7" r="4.22"/>
            </g>
            <g transform="matrix(1,0,0,1,-214,101)">
                <circle cx="460.56" cy="28.7" r="3.05"/>
            </g>
            <g transform="matrix(1,0,0,1,-214,101)">
                <path d="M626.54,49.08C625.1,48.81 623.88,48.46 622.88,48.03C622.67,47.94 622.54,47.73 622.54,47.51L622.54,43.3C622.54,43.1 622.74,42.97 622.93,43.04C625.43,44.06 628.24,44.58 631.35,44.58C634.28,44.58 636.39,43.96 637.67,42.73C638.95,41.5 639.6,39.66 639.6,37.23L639.6,35.68C638.47,36.71 637.12,37.49 635.55,38C633.98,38.52 632.3,38.78 630.5,38.78C628.07,38.78 625.87,38.24 623.9,37.16C621.93,36.08 620.4,34.57 619.3,32.63C618.2,30.7 617.65,28.48 617.65,25.98C617.65,23.48 618.19,21.22 619.27,19.31C620.35,17.4 621.85,15.91 623.77,14.86C625.69,13.81 627.86,13.28 630.29,13.28C632.32,13.28 634.07,13.56 635.54,14.11C637.01,14.66 638.42,15.57 639.79,16.83L639.79,14.31C639.79,14.15 639.92,14.03 640.07,14.03L645.6,14.03C645.76,14.03 645.88,14.16 645.88,14.31L645.88,36.58C645.88,40.71 644.69,43.91 642.3,46.16C639.92,48.41 636.26,49.54 631.33,49.54C629.73,49.54 628.13,49.39 626.53,49.09L626.54,49.08ZM636.67,32.36C638.09,31.38 639.06,30.07 639.6,28.44L639.6,23.59C639.03,21.96 638.05,20.66 636.65,19.69C635.25,18.72 633.65,18.24 631.85,18.24C629.58,18.24 627.72,18.96 626.25,20.39C624.78,21.82 624.05,23.69 624.05,25.99C624.05,28.29 624.78,30.17 626.25,31.64C627.72,33.11 629.58,33.84 631.85,33.84C633.65,33.84 635.26,33.35 636.67,32.37L636.67,32.36Z" style="fill:rgb(29,29,27);fill-rule:nonzero;"/>
            </g>
            <g transform="matrix(1,0,0,1,-214,101)">
                <path d="M652.17,14.03L657.71,14.03C657.87,14.03 657.99,14.16 657.99,14.31L657.99,17.88C658.96,16.58 660.33,15.61 662.11,14.98C663.82,14.37 665.76,14.06 667.94,14.03C668.1,14.03 668.23,14.16 668.23,14.32L668.23,18.55C668.23,18.7 668.1,18.83 667.95,18.83C665.63,18.86 663.62,19.23 661.91,19.95C660.13,20.7 658.88,21.87 658.18,23.48L658.18,37.75C658.18,37.91 658.05,38.03 657.9,38.03L652.17,38.03C652.01,38.03 651.89,37.9 651.89,37.75L651.89,14.31C651.89,14.15 652.02,14.03 652.17,14.03Z" style="fill:rgb(29,29,27);fill-rule:nonzero;"/>
            </g>
            <g transform="matrix(1,0,0,1,-214,101)">
                <path d="M671.74,36.5C669.91,34.98 668.99,32.94 668.99,30.38C668.99,27.82 669.86,25.63 671.59,24.13C673.32,22.63 675.76,21.88 678.89,21.88C682.02,21.88 684.54,22.5 686.74,23.73L686.74,23.08C686.74,21.38 686.21,20.15 685.16,19.38C684.11,18.61 682.42,18.23 680.08,18.23C678.61,18.23 677.16,18.37 675.73,18.65C674.46,18.9 673.32,19.24 672.31,19.66C672.12,19.74 671.93,19.61 671.93,19.4L671.93,15.25C671.93,15.02 672.06,14.81 672.27,14.73C673.23,14.33 674.46,14 675.96,13.73C677.64,13.43 679.27,13.28 680.84,13.28C685.01,13.28 688.09,14.17 690.09,15.95C692.09,17.73 693.09,20.21 693.09,23.37L693.09,37.74C693.09,37.9 692.96,38.02 692.81,38.02L687.43,38.02C687.27,38.02 687.15,37.89 687.15,37.74L687.15,35.67C686.12,36.67 684.94,37.44 683.63,37.97C682.31,38.5 680.71,38.77 678.8,38.77C675.93,38.77 673.58,38.01 671.75,36.49L671.74,36.5ZM684.14,33.36C685.27,32.81 686.14,32.05 686.74,31.08L686.74,28.43C684.91,27.13 682.81,26.48 680.44,26.48C677.07,26.48 675.39,27.78 675.39,30.38C675.39,31.65 675.82,32.6 676.67,33.23C677.52,33.86 678.75,34.18 680.34,34.18C681.74,34.18 683.01,33.9 684.14,33.35L684.14,33.36Z" style="fill:rgb(29,29,27);fill-rule:nonzero;"/>
            </g>
            <g transform="matrix(1,0,0,1,-214,101)">
                <path d="M700.59,36.5C698.76,34.98 697.84,32.94 697.84,30.38C697.84,27.82 698.71,25.63 700.44,24.13C702.17,22.63 704.61,21.88 707.74,21.88C710.87,21.88 713.39,22.5 715.59,23.73L715.59,23.08C715.59,21.38 715.06,20.15 714.01,19.38C712.96,18.61 711.27,18.23 708.93,18.23C707.46,18.23 706.01,18.37 704.58,18.65C703.31,18.9 702.17,19.24 701.16,19.66C700.97,19.74 700.78,19.61 700.78,19.4L700.78,15.06C700.78,14.95 700.84,14.84 700.95,14.8C701.93,14.37 703.22,14.01 704.81,13.73C706.49,13.43 708.12,13.28 709.69,13.28C713.86,13.28 716.94,14.17 718.94,15.95C720.94,17.73 721.94,20.21 721.94,23.37L721.94,37.74C721.94,37.9 721.81,38.02 721.66,38.02L716.28,38.02C716.12,38.02 716,37.89 716,37.74L716,35.67C714.97,36.67 713.79,37.44 712.48,37.97C711.16,38.5 709.56,38.77 707.65,38.77C704.78,38.77 702.43,38.01 700.6,36.49L700.59,36.5ZM712.99,33.36C714.12,32.81 714.99,32.05 715.59,31.08L715.59,28.43C713.76,27.13 711.66,26.48 709.29,26.48C705.92,26.48 704.24,27.78 704.24,30.38C704.24,31.65 704.67,32.6 705.52,33.23C706.37,33.86 707.6,34.18 709.19,34.18C710.59,34.18 711.86,33.9 712.99,33.35L712.99,33.36Z" style="fill:rgb(29,29,27);fill-rule:nonzero;"/>
            </g>
            <g transform="matrix(1,0,0,1,-214,101)">
                <path d="M728.32,13.51L734.15,13.51C734.31,13.51 734.43,13.64 734.43,13.79L734.43,37.75C734.43,37.91 734.3,38.03 734.15,38.03L728.32,38.03C728.16,38.03 728.04,37.9 728.04,37.75L728.04,13.79C728.04,13.63 728.17,13.51 728.32,13.51Z" style="fill:rgb(29,29,27);fill-rule:nonzero;"/>
            </g>
            <g transform="matrix(1,0,0,1,-214,101)">
                <path d="M741.12,14.03L746.65,14.03C746.81,14.03 746.93,14.16 746.93,14.31L746.93,17.28C748.06,15.91 749.41,14.9 750.98,14.25C752.55,13.6 754.2,13.28 755.93,13.28C759.16,13.28 761.58,14.16 763.18,15.9C764.78,17.65 765.58,19.98 765.58,22.87L765.58,37.74C765.58,37.9 765.45,38.02 765.3,38.02L759.57,38.02C759.41,38.02 759.29,37.89 759.29,37.74L759.29,23.47C759.29,19.97 757.66,18.22 754.39,18.22C752.96,18.22 751.61,18.56 750.34,19.24C749.07,19.92 748.01,20.95 747.14,22.32L747.14,37.74C747.14,37.9 747.01,38.02 746.86,38.02L741.13,38.02C740.97,38.02 740.85,37.89 740.85,37.74L740.85,14.31C740.85,14.15 740.98,14.03 741.13,14.03L741.12,14.03Z" style="fill:rgb(29,29,27);fill-rule:nonzero;"/>
            </g>
        </g>
    </g>
</svg>
