<?xml version="1.0" encoding="UTF-8"?>
<svg id="Ebene_1" data-name="Ebene 1" xmlns="http://www.w3.org/2000/svg" viewBox="0 0 386.26 95.76">
  <g>
    <path d="M138.37,86.6c-2.56-.48-4.74-1.1-6.53-1.87-.37-.16-.6-.53-.6-.93v-7.5c0-.36.36-.59.69-.46,4.46,1.83,9.46,2.74,15,2.74,5.23,0,8.99-1.1,11.27-3.3,2.29-2.2,3.43-5.47,3.43-9.81v-2.76c-2.02,1.84-4.43,3.22-7.22,4.14-2.79.92-5.79,1.38-9,1.38-4.34,0-8.26-.97-11.77-2.9-3.51-1.93-6.24-4.62-8.2-8.07-1.96-3.45-2.94-7.4-2.94-11.85s.97-8.48,2.9-11.9,4.61-6.06,8.02-7.93c3.42-1.87,7.29-2.81,11.63-2.81,3.62,0,6.74.49,9.36,1.47s5.14,2.6,7.58,4.86v-4.49c0-.28.23-.51.51-.51h9.87c.28,0,.51.23.51.51v39.7c0,7.37-2.13,13.06-6.37,17.07-4.25,4.01-10.77,6.02-19.56,6.02-2.85,0-5.71-.27-8.56-.8ZM156.42,56.78c2.53-1.75,4.26-4.09,5.22-7v-8.65c-1.01-2.91-2.76-5.23-5.26-6.95-2.5-1.72-5.35-2.59-8.56-2.59-4.04,0-7.37,1.28-9.98,3.83-2.61,2.56-3.92,5.88-3.92,9.98s1.31,7.46,3.92,10.07c2.61,2.62,5.94,3.92,9.98,3.92,3.21,0,6.07-.88,8.6-2.63Z"/>
    <path d="M184.07,24.11h9.87c.28,0,.51.23.51.51v6.36c1.72-2.32,4.17-4.04,7.35-5.17,3.04-1.08,6.51-1.64,10.39-1.69.28,0,.52.23.52.51v7.55c0,.27-.23.49-.5.5-4.13.05-7.72.72-10.78,2-3.18,1.34-5.39,3.43-6.64,6.28v25.43c0,.28-.23.51-.51.51h-10.22c-.28,0-.51-.23-.51-.51V24.62c0-.28.23-.51.51-.51Z"/>
    <path d="M218.95,64.18c-3.27-2.7-4.9-6.34-4.9-10.92s1.54-8.47,4.63-11.14c3.09-2.67,7.43-4.01,13.01-4.01s10.07,1.1,14,3.3v-1.16c0-3.03-.94-5.23-2.81-6.6-1.87-1.36-4.89-2.05-9.05-2.05-2.61,0-5.2.25-7.75.76-2.26.45-4.29,1.05-6.09,1.8-.33.14-.69-.1-.69-.46v-7.4c0-.4.23-.78.6-.93,1.71-.71,3.9-1.31,6.57-1.78,3-.53,5.9-.8,8.69-.8,7.43,0,12.92,1.59,16.49,4.77,3.57,3.18,5.35,7.59,5.35,13.24v25.61c0,.28-.23.51-.51.51h-9.6c-.28,0-.51-.23-.51-.51v-3.68c-1.84,1.78-3.94,3.15-6.28,4.1-2.35.95-5.21,1.43-8.6,1.43-5.11,0-9.3-1.35-12.57-4.06ZM241.06,58.57c2.02-.98,3.57-2.33,4.64-4.06v-4.72c-3.27-2.32-7.01-3.48-11.23-3.48-6,0-9,2.32-9,6.95,0,2.26.76,3.95,2.27,5.08,1.51,1.13,3.7,1.69,6.55,1.69,2.5,0,4.75-.49,6.77-1.47Z"/>
    <path d="M270.38,64.18c-3.27-2.7-4.9-6.34-4.9-10.92s1.54-8.47,4.63-11.14c3.09-2.67,7.43-4.01,13.01-4.01s10.07,1.1,14,3.3v-1.16c0-3.03-.94-5.23-2.81-6.6-1.87-1.36-4.89-2.05-9.05-2.05-2.61,0-5.2.25-7.75.76-2.26.45-4.29,1.05-6.09,1.8-.33.14-.68-.1-.68-.46v-7.74c0-.2.11-.39.3-.47,1.75-.77,4.04-1.41,6.88-1.92,3-.53,5.9-.8,8.69-.8,7.43,0,12.92,1.59,16.49,4.77,3.57,3.18,5.35,7.59,5.35,13.24v25.61c0,.28-.23.51-.51.51h-9.6c-.28,0-.51-.23-.51-.51v-3.68c-1.84,1.78-3.94,3.15-6.28,4.1-2.35.95-5.21,1.43-8.6,1.43-5.11,0-9.3-1.35-12.57-4.06ZM292.49,58.57c2.02-.98,3.57-2.33,4.64-4.06v-4.72c-3.27-2.32-7.01-3.48-11.23-3.48-6,0-9,2.32-9,6.95,0,2.26.76,3.95,2.27,5.08,1.51,1.13,3.7,1.69,6.55,1.69,2.5,0,4.75-.49,6.77-1.47Z"/>
    <path d="M319.82,23.18h10.4c.28,0,.51.23.51.51v42.71c0,.28-.23.51-.51.51h-10.4c-.28,0-.51-.23-.51-.51V23.69c0-.28.23-.51.51-.51Z"/>
    <path d="M342.64,24.11h9.86c.28,0,.51.23.51.51v5.29c2.02-2.44,4.43-4.23,7.22-5.39,2.79-1.16,5.73-1.74,8.82-1.74,5.76,0,10.07,1.56,12.92,4.68,2.85,3.12,4.28,7.27,4.28,12.43v26.5c0,.28-.23.51-.51.51h-10.22c-.28,0-.51-.23-.51-.51v-25.43c0-6.24-2.91-9.36-8.74-9.36-2.56,0-4.96.61-7.22,1.83-2.26,1.22-4.16,3.05-5.71,5.48v27.48c0,.28-.23.51-.51.51h-10.22c-.28,0-.51-.23-.51-.51V24.62c0-.28.23-.51.51-.51Z"/>
  </g>
  <g>
    <path d="M85.16,29.84c-2.22-6.81-6.11-12.84-11.24-17.79-5.74-5.54-12.84-9.25-20.42-10.96C28.62-4.5,4.33,12.08.49,37.28c-.88,5.74-.6,11.7,1,17.5,1.21,4.38,3,8.5,5.45,12.3,5.59,8.68,13.95,15.13,23.81,18.22,4.76,1.49,9.59,2.02,14.69,1.92l-6.75,7.45c-.14.15-.17.64-.07.8.09.14.4.29.62.29l10.86-.02c.81,0,1.44-.71,1.95-1.25l10.37-11.13c.54-.58.19-1.55-.09-2.06-2.25-4.08-2.25-8.78-.21-12.89,3.48-7.01,11.99-9.91,18.99-6.27.54.28,1.72.47,2.08-.26,1.99-4.09,3.26-8.42,3.86-12.96.85-6.46.12-12.9-1.89-19.08ZM43.68,69.96c-14.38,0-26.04-11.66-26.04-26.04s11.66-26.04,26.04-26.04,26.04,11.66,26.04,26.04-11.66,26.04-26.04,26.04Z"/>
    <circle cx="74.75" cy="74.49" r="8.14" transform="translate(-30.78 74.67) rotate(-45)"/>
  </g>
</svg>