<?xml version="1.0" encoding="UTF-8" standalone="no"?>
<!DOCTYPE svg PUBLIC "-//W3C//DTD SVG 1.1//EN" "http://www.w3.org/Graphics/SVG/1.1/DTD/svg11.dtd">
<svg width="100%" height="100%" viewBox="0 0 959 217" version="1.1" xmlns="http://www.w3.org/2000/svg" xmlns:xlink="http://www.w3.org/1999/xlink" xml:space="preserve" xmlns:serif="http://www.serif.com/" style="fill-rule:evenodd;clip-rule:evenodd;stroke-linejoin:round;stroke-miterlimit:2;">
    <g id="Seite-1" serif:id="Seite 1" transform="matrix(1.610014,0,0,0.256613,0,0)">
        <rect x="0" y="0" width="595.276" height="841.89" style="fill:none;"/>
        <g id="Ebene-1" serif:id="Ebene 1" transform="matrix(1.6563,0,0,10.391779,-177.017099,-2151.098315)">
            <g transform="matrix(1,0,0,1,213.308,253.4975)">
                <path d="M0,-4.383L-4.915,-5.645C-6.554,-6.088 -7.938,-6.664 -9.067,-7.372C-10.196,-8.08 -10.761,-9.143 -10.761,-10.561C-10.761,-11.978 -10.075,-13.095 -8.702,-13.915C-7.33,-14.734 -5.713,-15.144 -3.853,-15.144C-2.126,-15.144 -0.554,-14.812 0.863,-14.147C2.28,-13.483 3.409,-12.31 4.251,-10.627L9.166,-12.886C8.502,-14.48 7.527,-15.818 6.244,-16.904C4.959,-17.989 3.464,-18.807 1.76,-19.362C0.055,-19.915 -1.772,-20.192 -3.72,-20.192C-5.935,-20.192 -8.016,-19.804 -9.964,-19.03C-11.913,-18.254 -13.484,-17.136 -14.68,-15.675C-15.875,-14.214 -16.473,-12.464 -16.473,-10.428C-16.473,-8.612 -16.041,-7.074 -15.178,-5.811C-14.315,-4.549 -13.175,-3.52 -11.757,-2.722C-10.34,-1.926 -8.835,-1.305 -7.24,-0.863L-3.122,0.2C-1.528,0.599 -0.177,1.042 0.93,1.528C2.036,2.016 2.878,2.602 3.454,3.289C4.029,3.976 4.318,4.828 4.318,5.846C4.318,7.485 3.62,8.725 2.225,9.566C0.83,10.407 -0.908,10.828 -2.989,10.828C-5.159,10.828 -7.086,10.274 -8.768,9.167C-10.451,8.061 -11.735,6.489 -12.621,4.451L-17.669,6.709C-17.049,8.348 -16.108,9.864 -14.846,11.26C-13.584,12.654 -11.99,13.762 -10.063,14.581C-8.137,15.399 -5.912,15.809 -3.388,15.809C-0.908,15.809 1.35,15.388 3.388,14.548C5.424,13.707 7.041,12.511 8.236,10.961C9.432,9.411 10.03,7.573 10.03,5.448C10.03,3.056 9.188,1.03 7.506,-0.63C5.822,-2.291 3.321,-3.542 0,-4.383" style="fill:rgb(29,29,27);fill-rule:nonzero;"/>
            </g>
            <g transform="matrix(1,0,0,1,241.2053,230.0509)">
                <path d="M0,33.477C-1.551,33.477 -2.713,33.024 -3.487,32.115C-4.262,31.209 -4.65,29.802 -4.65,27.898L-4.65,9.432L3.653,9.432L3.653,4.317L-4.65,4.317L-4.65,-5.248L-10.296,-5.248L-10.296,4.317L-16.274,4.317L-16.274,9.432L-10.296,9.432L-10.296,29.292C-10.296,32.172 -9.432,34.463 -7.705,36.168C-5.978,37.872 -3.698,38.725 -0.863,38.725C0.022,38.725 0.841,38.647 1.594,38.493C2.347,38.337 3.077,38.127 3.786,37.861L3.786,32.348C3.21,32.703 2.612,32.979 1.993,33.179C1.372,33.378 0.708,33.477 0,33.477" style="fill:rgb(29,29,27);fill-rule:nonzero;"/>
            </g>
            <g transform="matrix(1,0,0,1,270.2988,243.6671)">
                <path d="M0,15.278C-0.975,16.917 -2.27,18.224 -3.886,19.197C-5.503,20.172 -7.285,20.658 -9.233,20.658C-11.403,20.658 -13.197,20.083 -14.613,18.931C-16.031,17.78 -16.739,16.274 -16.739,14.415C-16.739,12.466 -15.986,10.827 -14.48,9.499C-12.975,8.171 -10.606,7.506 -7.373,7.506C-5.558,7.506 -3.886,7.728 -2.358,8.171C-0.83,8.614 0.442,9.19 1.461,9.897C1.461,11.847 0.974,13.64 0,15.278M-7.904,-10.362C-9.809,-10.362 -11.614,-10.096 -13.318,-9.565C-15.023,-9.033 -16.539,-8.28 -17.868,-7.306C-19.196,-6.332 -20.304,-5.18 -21.189,-3.852L-16.938,-0.664C-16.008,-2.125 -14.736,-3.265 -13.119,-4.085C-11.503,-4.903 -9.764,-5.313 -7.904,-5.313C-5.292,-5.313 -3.078,-4.56 -1.262,-3.055C0.553,-1.549 1.461,0.488 1.461,3.056L1.461,5.115C0.974,4.806 0.254,4.484 -0.697,4.152C-1.65,3.82 -2.768,3.533 -4.052,3.289C-5.337,3.045 -6.732,2.923 -8.236,2.923C-10.85,2.923 -13.241,3.355 -15.41,4.218C-17.581,5.082 -19.307,6.367 -20.591,8.071C-21.876,9.776 -22.518,11.869 -22.518,14.348C-22.518,16.518 -21.976,18.456 -20.89,20.16C-19.805,21.865 -18.311,23.205 -16.406,24.178C-14.503,25.152 -12.288,25.64 -9.764,25.64C-8.037,25.64 -6.455,25.351 -5.015,24.776C-3.576,24.202 -2.325,23.46 -1.262,22.551C-0.199,21.644 0.62,20.703 1.196,19.729L1.461,19.729L1.461,24.577L6.842,24.577L6.842,3.123C6.842,-0.996 5.535,-4.272 2.923,-6.709C0.309,-9.143 -3.299,-10.362 -7.904,-10.362" style="fill:rgb(29,29,27);fill-rule:nonzero;"/>
            </g>
            <g transform="matrix(1,0,0,1,295.0076,230.0509)">
                <path d="M0,33.477C-1.55,33.477 -2.713,33.024 -3.487,32.115C-4.262,31.209 -4.649,29.802 -4.649,27.898L-4.649,9.432L3.653,9.432L-0.332,4.317L-4.649,4.317L-4.649,-5.248L-10.295,-5.248L-10.295,4.317L-16.273,4.317L-16.273,9.432L-10.295,9.432L-10.295,29.292C-10.295,32.172 -9.432,34.463 -7.705,36.168C-5.978,37.872 -3.698,38.725 -0.863,38.725C0.022,38.725 0.841,38.647 1.594,38.493C2.347,38.337 3.077,38.127 3.787,37.861L3.787,32.348C3.211,32.703 2.613,32.979 1.993,33.179C1.373,33.378 0.708,33.477 0,33.477" style="fill:rgb(29,29,27);fill-rule:nonzero;"/>
            </g>
            <g transform="matrix(1,0,0,1,303.3773,234.3684)">
                <path d="M0,33.876L5.646,33.876L5.646,0L0,3.985L0,33.876Z" style="fill:rgb(29,29,27);fill-rule:nonzero;"/>
            </g>
            <g transform="matrix(1,0,0,1,336.523,240.0805)">
                <path d="M0,22.451C-1.727,23.559 -3.786,24.112 -6.177,24.112C-8.17,24.112 -10.02,23.58 -11.724,22.518C-13.429,21.455 -14.812,19.95 -15.876,18.001C-16.938,16.053 -17.469,13.795 -17.469,11.226C-17.469,8.614 -16.938,6.343 -15.876,4.417C-14.812,2.491 -13.429,0.996 -11.724,-0.066C-10.02,-1.129 -8.17,-1.661 -6.177,-1.661C-3.831,-1.661 -1.827,-1.118 -0.166,-0.033C1.495,1.053 2.745,2.635 3.586,4.716L8.701,2.591C7.682,-0.154 5.945,-2.401 3.487,-4.152C1.029,-5.9 -2.104,-6.775 -5.912,-6.775C-9.233,-6.775 -12.189,-5.989 -14.779,-4.417C-17.37,-2.845 -19.396,-0.708 -20.857,1.993C-22.319,4.694 -23.049,7.772 -23.049,11.226C-23.049,14.636 -22.319,17.702 -20.857,20.425C-19.396,23.149 -17.37,25.297 -14.779,26.868C-12.189,28.44 -9.233,29.226 -5.912,29.226C-2.104,29.226 1.04,28.318 3.52,26.503C6,24.688 7.793,22.474 8.9,19.861L3.852,17.735C3.01,19.773 1.727,21.345 0,22.451" style="fill:rgb(29,29,27);fill-rule:nonzero;"/>
            </g>
            <g transform="matrix(1,0,0,1,358.1432,266.8819)">
                <path d="M0,-45.367C-1.661,-44.459 -2.946,-43.219 -3.852,-41.647C-4.761,-40.075 -5.214,-38.248 -5.214,-36.167L-5.214,-32.514L-11.458,-32.514L-11.458,-27.399L-5.214,-27.399L-5.214,1.362L0.432,1.362L0.432,-27.399L15.975,-27.399L15.975,1.362L21.621,1.362L21.621,-32.514L0.432,-32.514L0.432,-35.57C0.432,-37.384 0.941,-38.824 1.96,-39.887C2.977,-40.95 4.306,-41.481 5.945,-41.481L21.621,-41.508L21.621,-46.729L5.812,-46.729C3.598,-46.729 1.661,-46.274 0,-45.367" style="fill:rgb(29,29,27);fill-rule:nonzero;"/>
            </g>
            <g transform="matrix(1,0,0,1,389.5493,254.8932)">
                <path d="M0,-7.174C0.216,-8.231 0.528,-9.228 0.942,-10.163C1.805,-12.111 3.044,-13.65 4.661,-14.78C6.277,-15.908 8.192,-16.473 10.407,-16.473C12.267,-16.473 13.828,-16.174 15.09,-15.576C16.352,-14.979 17.392,-14.204 18.212,-13.251C19.031,-12.299 19.629,-11.281 20.005,-10.196C20.381,-9.11 20.592,-8.104 20.636,-7.174L0,-7.174ZM19.075,-19.362C16.661,-20.846 13.772,-21.588 10.407,-21.588C7.086,-21.588 4.196,-20.758 1.739,-19.097C-0.719,-17.437 -2.623,-15.233 -3.974,-12.488C-5.325,-9.741 -6,-6.752 -6,-3.521C-6,-0.067 -5.28,3.012 -3.841,5.712C-2.402,8.414 -0.409,10.539 2.137,12.089C4.683,13.639 7.594,14.414 10.872,14.414C14.592,14.414 17.691,13.572 20.172,11.89C22.651,10.207 24.555,8.082 25.884,5.513L21.101,3.188C20.127,4.915 18.831,6.366 17.216,7.539C15.598,8.713 13.551,9.299 11.071,9.299C9.167,9.299 7.34,8.834 5.591,7.904C3.841,6.974 2.414,5.557 1.307,3.653C0.33,1.974 -0.214,-0.086 -0.329,-2.524L26.482,-2.524C26.525,-2.746 26.558,-3.011 26.581,-3.322C26.603,-3.63 26.614,-3.941 26.614,-4.251C26.614,-7.616 25.96,-10.605 24.655,-13.218C23.348,-15.83 21.488,-17.878 19.075,-19.362" style="fill:rgb(29,29,27);fill-rule:nonzero;"/>
            </g>
            <g transform="matrix(1,0,0,1,0,-352.962)">
                <rect x="420.613" y="573.646" width="5.646" height="47.56" style="fill:rgb(29,29,27);"/>
            </g>
            <g transform="matrix(1,0,0,1,457.1463,231.8109)">
                <path d="M0,26.37C-1.062,28.297 -2.447,29.781 -4.151,30.821C-5.857,31.862 -7.683,32.381 -9.631,32.381C-11.581,32.381 -13.407,31.862 -15.111,30.821C-16.817,29.781 -18.2,28.286 -19.263,26.337C-20.325,24.389 -20.857,22.109 -20.857,19.495C-20.857,16.838 -20.325,14.547 -19.263,12.62C-18.2,10.694 -16.817,9.211 -15.111,8.17C-13.407,7.13 -11.581,6.609 -9.631,6.609C-7.683,6.609 -5.857,7.13 -4.151,8.17C-2.447,9.211 -1.062,10.694 0,12.62C1.063,14.547 1.594,16.838 1.594,19.495C1.594,22.152 1.063,24.444 0,26.37M1.328,-11.126L1.328,2.889L1.594,7.605L1.328,7.605C0.708,6.543 -0.166,5.546 -1.295,4.616C-2.424,3.687 -3.742,2.934 -5.247,2.358C-6.753,1.783 -8.414,1.494 -10.229,1.494C-13.285,1.494 -16.041,2.27 -18.499,3.819C-20.957,5.37 -22.894,7.496 -24.311,10.196C-25.729,12.898 -26.436,15.998 -26.436,19.495C-26.436,22.994 -25.729,26.094 -24.311,28.795C-22.894,31.496 -20.957,33.621 -18.499,35.171C-16.041,36.721 -13.285,37.496 -10.229,37.496C-8.414,37.496 -6.753,37.207 -5.247,36.633C-3.742,36.058 -2.424,35.304 -1.295,34.374C-0.166,33.444 0.708,32.471 1.328,31.452L1.594,31.452L1.594,36.433L6.974,36.433L6.974,-11.126L1.328,-11.126Z" style="fill:rgb(29,29,27);fill-rule:nonzero;"/>
            </g>
            <g transform="matrix(1,0,0,1,162.6804,257.9154)">
                <path d="M0,-47.833L-38.794,-33.713C-39.996,-33.276 -40.796,-32.133 -40.796,-30.854L-40.796,0.875L2.943,-15.045C4.145,-15.483 4.945,-16.625 4.945,-17.904L4.945,-44.37C4.945,-46.928 2.404,-48.708 0,-47.833" style="fill:rgb(29,29,27);fill-rule:nonzero;"/>
            </g>
            <g transform="matrix(1,0,0,1,113.8003,244.4219)">
                <path d="M0,40.576L37.937,26.768C39.115,26.339 39.9,25.219 39.9,23.965L39.9,-0.875L-4.945,15.447L-4.945,37.113C-4.945,39.671 -2.403,41.451 0,40.576" style="fill:rgb(29,29,27);fill-rule:nonzero;"/>
            </g>
        </g>
    </g>
</svg>
