<?xml version="1.0" encoding="UTF-8" standalone="no"?>
<!DOCTYPE svg PUBLIC "-//W3C//DTD SVG 1.1//EN" "http://www.w3.org/Graphics/SVG/1.1/DTD/svg11.dtd">
<svg width="100%" height="100%" viewBox="0 0 1704 351" version="1.1" xmlns="http://www.w3.org/2000/svg" xmlns:xlink="http://www.w3.org/1999/xlink" xml:space="preserve" xmlns:serif="http://www.serif.com/" style="fill-rule:evenodd;clip-rule:evenodd;stroke-linejoin:round;stroke-miterlimit:2;">
    <g id="Seite-1" serif:id="Seite 1" transform="matrix(2.86139,0,0,0.416771,0,0)">
        <rect x="0" y="0" width="595.276" height="841.89" style="fill:none;"/>
        <g id="Ebene-1" serif:id="Ebene 1" transform="matrix(1.456169,0,0,9.997506,-135.248963,-3788.654963)">
            <g transform="matrix(1,0,0,1,121.6402,434.1437)">
                <path d="M0,-6.598L-7.4,-8.498C-9.867,-9.164 -11.95,-10.032 -13.65,-11.098C-15.35,-12.164 -16.2,-13.764 -16.2,-15.899C-16.2,-18.032 -15.167,-19.714 -13.1,-20.949C-11.035,-22.181 -8.6,-22.798 -5.8,-22.798C-3.2,-22.798 -0.834,-22.298 1.3,-21.298C3.433,-20.298 5.133,-18.532 6.4,-15.998L13.8,-19.399C12.8,-21.798 11.333,-23.814 9.4,-25.449C7.465,-27.081 5.215,-28.314 2.65,-29.149C0.083,-29.981 -2.667,-30.399 -5.6,-30.399C-8.935,-30.399 -12.067,-29.814 -15,-28.649C-17.935,-27.481 -20.3,-25.798 -22.1,-23.598C-23.9,-21.399 -24.8,-18.764 -24.8,-15.699C-24.8,-12.964 -24.15,-10.649 -22.85,-8.748C-21.55,-6.848 -19.834,-5.298 -17.7,-4.098C-15.567,-2.899 -13.3,-1.964 -10.9,-1.298L-4.7,0.301C-2.3,0.902 -0.267,1.569 1.4,2.301C3.065,3.036 4.333,3.919 5.2,4.952C6.065,5.986 6.5,7.269 6.5,8.801C6.5,11.269 5.45,13.136 3.35,14.402C1.25,15.669 -1.367,16.301 -4.5,16.301C-7.767,16.301 -10.667,15.468 -13.2,13.801C-15.734,12.136 -17.667,9.769 -19,6.702L-26.6,10.101C-25.667,12.569 -24.25,14.851 -22.35,16.952C-20.45,19.051 -18.05,20.718 -15.15,21.952C-12.25,23.184 -8.9,23.801 -5.1,23.801C-1.367,23.801 2.033,23.168 5.1,21.902C8.166,20.636 10.6,18.836 12.4,16.502C14.2,14.169 15.1,11.402 15.1,8.202C15.1,4.601 13.833,1.551 11.3,-0.949C8.766,-3.449 5,-5.331 0,-6.598" style="fill:rgb(29,29,27);fill-rule:nonzero;"/>
            </g>
            <g transform="matrix(1,0,0,1,163.6393,398.8449)">
                <path d="M0,50.4C-2.334,50.4 -4.084,49.717 -5.25,48.35C-6.417,46.985 -7,44.868 -7,42.001L-7,14.201L5.5,14.201L5.5,6.501L-7,6.501L-7,-7.9L-15.5,-7.9L-15.5,6.501L-24.5,6.501L-24.5,14.201L-15.5,14.201L-15.5,44.1C-15.5,48.435 -14.2,51.884 -11.6,54.451C-9,57.017 -5.567,58.3 -1.3,58.3C0.033,58.3 1.266,58.183 2.4,57.951C3.533,57.716 4.633,57.4 5.7,57.001L5.7,48.701C4.833,49.235 3.933,49.65 3,49.951C2.065,50.251 1.065,50.4 0,50.4" style="fill:rgb(29,29,27);fill-rule:nonzero;"/>
            </g>
            <g transform="matrix(1,0,0,1,207.4391,419.3445)">
                <path d="M0,23.001C-1.467,25.468 -3.417,27.436 -5.85,28.9C-8.284,30.368 -10.967,31.101 -13.9,31.101C-17.167,31.101 -19.867,30.235 -22,28.501C-24.134,26.768 -25.2,24.501 -25.2,21.701C-25.2,18.768 -24.067,16.301 -21.8,14.301C-19.534,12.301 -15.967,11.301 -11.1,11.301C-8.367,11.301 -5.85,11.635 -3.55,12.301C-1.25,12.968 0.666,13.835 2.2,14.9C2.2,17.835 1.466,20.535 0,23.001M-11.9,-15.6C-14.767,-15.6 -17.484,-15.199 -20.05,-14.399C-22.617,-13.6 -24.9,-12.465 -26.9,-10.999C-28.9,-9.532 -30.567,-7.799 -31.9,-5.799L-25.5,-0.999C-24.1,-3.199 -22.184,-4.915 -19.75,-6.149C-17.317,-7.382 -14.7,-7.999 -11.9,-7.999C-7.967,-7.999 -4.634,-6.865 -1.9,-4.6C0.833,-2.332 2.2,0.735 2.2,4.601L2.2,7.701C1.466,7.235 0.383,6.751 -1.05,6.251C-2.484,5.751 -4.167,5.318 -6.1,4.951C-8.034,4.585 -10.134,4.4 -12.4,4.4C-16.334,4.4 -19.934,5.051 -23.2,6.351C-26.467,7.65 -29.067,9.585 -31,12.15C-32.934,14.718 -33.9,17.868 -33.9,21.601C-33.9,24.868 -33.084,27.785 -31.45,30.351C-29.817,32.918 -27.567,34.936 -24.7,36.4C-21.834,37.866 -18.5,38.601 -14.7,38.601C-12.1,38.601 -9.717,38.166 -7.55,37.301C-5.384,36.436 -3.5,35.318 -1.9,33.951C-0.3,32.585 0.933,31.168 1.8,29.701L2.2,29.701L2.2,37.001L10.3,37.001L10.3,4.701C10.3,-1.499 8.333,-6.432 4.4,-10.1C0.466,-13.765 -4.967,-15.6 -11.9,-15.6" style="fill:rgb(29,29,27);fill-rule:nonzero;"/>
            </g>
            <g transform="matrix(1,0,0,1,244.6378,398.8449)">
                <path d="M0,50.4C-2.334,50.4 -4.084,49.717 -5.25,48.35C-6.417,46.985 -7,44.868 -7,42.001L-7,14.201L5.5,14.201L-0.5,6.501L-7,6.501L-7,-7.9L-15.5,-7.9L-15.5,6.501L-24.5,6.501L-24.5,14.201L-15.5,14.201L-15.5,44.1C-15.5,48.435 -14.2,51.884 -11.6,54.451C-9,57.017 -5.567,58.3 -1.299,58.3C0.033,58.3 1.266,58.183 2.4,57.951C3.533,57.716 4.633,57.4 5.701,57.001L5.701,48.701C4.834,49.235 3.934,49.65 3,49.951C2.066,50.251 1.066,50.4 0,50.4" style="fill:rgb(29,29,27);fill-rule:nonzero;"/>
            </g>
            <g transform="matrix(1,0,0,1,257.2384,405.3455)">
                <path d="M0,51L8.5,51L8.5,0L0,6L0,51Z" style="fill:rgb(29,29,27);fill-rule:nonzero;"/>
            </g>
            <g transform="matrix(1,0,0,1,307.1388,413.9449)">
                <path d="M0,33.8C-2.601,35.468 -5.7,36.3 -9.3,36.3C-12.3,36.3 -15.085,35.5 -17.65,33.901C-20.218,32.3 -22.3,30.034 -23.9,27.101C-25.5,24.167 -26.3,20.768 -26.3,16.901C-26.3,12.968 -25.5,9.55 -23.9,6.651C-22.3,3.75 -20.218,1.5 -17.65,-0.099C-15.085,-1.7 -12.3,-2.5 -9.3,-2.5C-5.768,-2.5 -2.75,-1.682 -0.25,-0.05C2.25,1.585 4.133,3.968 5.399,7.101L13.1,3.901C11.565,-0.232 8.95,-3.615 5.25,-6.25C1.55,-8.883 -3.167,-10.2 -8.9,-10.2C-13.9,-10.2 -18.351,-9.015 -22.25,-6.649C-26.15,-4.282 -29.2,-1.065 -31.4,3C-33.601,7.068 -34.7,11.7 -34.7,16.901C-34.7,22.034 -33.601,26.651 -31.4,30.75C-29.2,34.851 -26.15,38.085 -22.25,40.45C-18.351,42.816 -13.9,44 -8.9,44C-3.167,44 1.565,42.633 5.3,39.901C9.032,37.167 11.732,33.835 13.399,29.901L5.8,26.7C4.532,29.768 2.6,32.135 0,33.8" style="fill:rgb(29,29,27);fill-rule:nonzero;"/>
            </g>
            <g transform="matrix(1,0,0,1,339.6876,454.2959)">
                <path d="M0,-68.301C-2.5,-66.934 -4.435,-65.067 -5.8,-62.7C-7.167,-60.333 -7.85,-57.583 -7.85,-54.45L-7.85,-48.95L-17.25,-48.95L-17.25,-41.25L-7.85,-41.25L-7.85,2.05L0.65,2.05L0.65,-41.25L24.05,-41.25L24.05,2.05L32.55,2.05L32.55,-48.95L0.65,-48.95L0.65,-53.551C0.65,-56.283 1.416,-58.45 2.95,-60.051C4.482,-61.651 6.482,-62.45 8.95,-62.45L32.55,-62.491L32.55,-70.351L8.75,-70.351C5.416,-70.351 2.5,-69.667 0,-68.301" style="fill:rgb(29,29,27);fill-rule:nonzero;"/>
            </g>
            <g transform="matrix(1,0,0,1,386.969,436.2451)">
                <path d="M0,-10.8C0.325,-12.391 0.794,-13.893 1.418,-15.3C2.718,-18.233 4.583,-20.55 7.017,-22.25C9.45,-23.949 12.333,-24.8 15.668,-24.8C18.468,-24.8 20.817,-24.35 22.718,-23.449C24.618,-22.55 26.183,-21.383 27.418,-19.949C28.65,-18.516 29.551,-16.983 30.118,-15.35C30.683,-13.715 31.001,-12.199 31.067,-10.8L0,-10.8ZM28.718,-29.15C25.083,-31.383 20.733,-32.5 15.668,-32.5C10.668,-32.5 6.317,-31.25 2.618,-28.75C-1.082,-26.25 -3.949,-22.933 -5.983,-18.8C-8.017,-14.665 -9.032,-10.165 -9.032,-5.3C-9.032,-0.1 -7.949,4.535 -5.782,8.6C-3.616,12.668 -0.616,15.867 3.218,18.2C7.051,20.533 11.433,21.7 16.368,21.7C21.968,21.7 26.634,20.433 30.368,17.9C34.1,15.367 36.968,12.168 38.968,8.301L31.767,4.801C30.301,7.4 28.35,9.585 25.918,11.35C23.483,13.117 20.4,14 16.668,14C13.801,14 11.051,13.301 8.418,11.9C5.783,10.5 3.634,8.367 1.968,5.5C0.497,2.972 -0.322,-0.129 -0.496,-3.8L39.868,-3.8C39.933,-4.133 39.983,-4.532 40.017,-5C40.051,-5.465 40.067,-5.933 40.067,-6.4C40.067,-11.465 39.083,-15.965 37.118,-19.9C35.15,-23.832 32.35,-26.915 28.718,-29.15" style="fill:rgb(29,29,27);fill-rule:nonzero;"/>
            </g>
            <g transform="matrix(1,0,0,1,0,-0.801)">
                <rect x="433.735" y="385.545" width="8.5" height="71.601" style="fill:rgb(29,29,27);"/>
            </g>
            <g transform="matrix(1,0,0,1,488.7354,401.4951)">
                <path d="M0,39.7C-1.6,42.6 -3.685,44.835 -6.25,46.4C-8.817,47.968 -11.567,48.75 -14.5,48.75C-17.435,48.75 -20.185,47.968 -22.75,46.4C-25.317,44.835 -27.399,42.585 -29,39.65C-30.6,36.718 -31.399,33.285 -31.399,29.35C-31.399,25.35 -30.6,21.9 -29,19C-27.399,16.1 -25.317,13.867 -22.75,12.301C-20.185,10.734 -17.435,9.95 -14.5,9.95C-11.567,9.95 -8.817,10.734 -6.25,12.301C-3.685,13.867 -1.6,16.1 0,19C1.601,21.9 2.4,25.35 2.4,29.35C2.4,33.35 1.601,36.801 0,39.7M2,-16.75L2,4.35L2.4,11.45L2,11.45C1.065,9.85 -0.25,8.35 -1.95,6.95C-3.649,5.551 -5.634,4.418 -7.899,3.551C-10.167,2.684 -12.667,2.25 -15.399,2.25C-20,2.25 -24.149,3.418 -27.85,5.75C-31.55,8.085 -34.467,11.285 -36.6,15.35C-38.734,19.418 -39.8,24.085 -39.8,29.35C-39.8,34.617 -38.734,39.285 -36.6,43.35C-34.467,47.418 -31.55,50.617 -27.85,52.95C-24.149,55.283 -20,56.45 -15.399,56.45C-12.667,56.45 -10.167,56.015 -7.899,55.15C-5.634,54.285 -3.649,53.15 -1.95,51.75C-0.25,50.35 1.065,48.885 2,47.35L2.4,47.35L2.4,54.85L10.5,54.85L10.5,-16.75L2,-16.75Z" style="fill:rgb(29,29,27);fill-rule:nonzero;"/>
            </g>
        </g>
    </g>
</svg>
